<svg xmlns="http://www.w3.org/2000/svg" viewBox="0 0 555.967 568.954">
  <defs>
    <style>
      .cls-1 {
        opacity: 0.12;
      }

      .cls-2 {
        fill: rgb(22, 143, 247);
      }

      .cls-3 {
        fill: #fde180;
      }

      .cls-4 {
        fill: #fcda60;
      }

      .cls-5 {
        fill: #fff;
      }
    </style>
  </defs>
  <g id="img" class="cls-1" transform="translate(-324.813 -218.896)">
    <g id="money" transform="translate(424 459.33)">
      <g id="Group_29" data-name="Group 29" transform="translate(60.748 60.415)">
        <path id="Path_15" data-name="Path 15" class="cls-2" d="M131.8,181.759a3.775,3.775,0,0,1-2.523-6.6l34.171-30.208a3.81,3.81,0,0,1,5.36.314,3.761,3.761,0,0,1-.316,5.331l-34.171,30.208A3.794,3.794,0,0,1,131.8,181.759Z" transform="translate(-128 -136.447)"/>
        <path id="Path_16" data-name="Path 16" class="cls-2" d="M338.575,154.432a3.79,3.79,0,0,1-2.428-.875l-22.781-18.88a3.761,3.761,0,0,1-.486-5.318,3.81,3.81,0,0,1,5.347-.483l22.781,18.88a3.761,3.761,0,0,1,.486,5.318A3.8,3.8,0,0,1,338.575,154.432Z" transform="translate(-224.674 -127.999)"/>
      </g>
      <path id="Path_17" data-name="Path 17" class="cls-3" d="M41.764,192a41.536,41.536,0,1,0,41.764,41.536A41.7,41.7,0,0,0,41.764,192Z" transform="translate(0 -101.376)"/>
      <path id="Path_18" data-name="Path 18" class="cls-4" d="M54.374,216a30.208,30.208,0,1,0,30.374,30.208A30.325,30.325,0,0,0,54.374,216Z" transform="translate(-12.61 -114.048)"/>
      <path id="Path_19" data-name="Path 19" class="cls-5" d="M82.74,244.733a3.787,3.787,0,0,0,3.8-3.776V238.5a11.176,11.176,0,0,0-9.872-11.058v-3.668a3.8,3.8,0,0,0-7.594,0v3.852A12.36,12.36,0,0,0,71.634,252.1H74.1a4.814,4.814,0,1,1,0,9.629H70.4a3.6,3.6,0,0,1-3.607-3.588,3.8,3.8,0,0,0-7.594,0A11.176,11.176,0,0,0,69.072,269.2v3.668a3.8,3.8,0,0,0,7.594,0v-3.852A12.36,12.36,0,0,0,74.1,244.544H71.634a4.814,4.814,0,1,1,0-9.629h3.7a3.6,3.6,0,0,1,3.607,3.588v2.454A3.786,3.786,0,0,0,82.74,244.733Z" transform="translate(-31.104 -116.16)"/>
      <path id="Path_20" data-name="Path 20" class="cls-3" d="M209.764,0a41.536,41.536,0,1,0,41.764,41.536A41.7,41.7,0,0,0,209.764,0Z" transform="translate(-88.268)"/>
      <path id="Path_21" data-name="Path 21" class="cls-4" d="M222.374,24a30.208,30.208,0,1,0,30.374,30.208A30.325,30.325,0,0,0,222.374,24Z" transform="translate(-100.878 -12.672)"/>
      <path id="Path_22" data-name="Path 22" class="cls-5" d="M250.74,52.733a3.787,3.787,0,0,0,3.8-3.776V46.5a11.176,11.176,0,0,0-9.872-11.058V31.776a3.8,3.8,0,0,0-7.594,0v3.852A12.36,12.36,0,0,0,239.634,60.1H242.1a4.814,4.814,0,1,1,0,9.629h-3.7a3.6,3.6,0,0,1-3.607-3.588,3.8,3.8,0,0,0-7.594,0A11.176,11.176,0,0,0,237.072,77.2v3.668a3.8,3.8,0,0,0,7.594,0V77.011A12.36,12.36,0,0,0,242.1,52.544h-2.468a4.814,4.814,0,1,1,0-9.629h3.7a3.6,3.6,0,0,1,3.607,3.588v2.454A3.786,3.786,0,0,0,250.74,52.733Z" transform="translate(-119.372 -14.784)"/>
      <path id="Path_23" data-name="Path 23" class="cls-3" d="M377.764,144a41.536,41.536,0,1,0,41.764,41.536A41.7,41.7,0,0,0,377.764,144Z" transform="translate(-176.536 -76.032)"/>
      <path id="Path_24" data-name="Path 24" class="cls-4" d="M390.374,168a30.208,30.208,0,1,0,30.374,30.208A30.325,30.325,0,0,0,390.374,168Z" transform="translate(-189.145 -88.704)"/>
      <path id="Path_25" data-name="Path 25" class="cls-5" d="M418.739,196.733a3.787,3.787,0,0,0,3.8-3.776V190.5a11.176,11.176,0,0,0-9.872-11.058v-3.668a3.8,3.8,0,0,0-7.594,0v3.852a12.36,12.36,0,0,0,2.563,24.467H410.1a4.814,4.814,0,1,1,0,9.629h-3.7a3.6,3.6,0,0,1-3.607-3.588,3.8,3.8,0,0,0-7.594,0,11.176,11.176,0,0,0,9.872,11.058v3.668a3.8,3.8,0,0,0,7.594,0v-3.852a12.36,12.36,0,0,0-2.563-24.467h-2.467a4.814,4.814,0,1,1,0-9.629h3.7a3.6,3.6,0,0,1,3.607,3.588v2.454A3.786,3.786,0,0,0,418.739,196.733Z" transform="translate(-207.639 -90.816)"/>
      <path id="Path_26" data-name="Path 26" class="cls-2" d="M122.171,392H91.8a3.787,3.787,0,0,0-3.8,3.776V448.64h37.968V395.776A3.787,3.787,0,0,0,122.171,392Z" transform="translate(-46.236 -206.977)"/>
      <path id="Path_27" data-name="Path 27" class="cls-2" d="M103.187,392H91.8a3.787,3.787,0,0,0-3.8,3.776V448.64H99.39V395.776A3.787,3.787,0,0,1,103.187,392Z" transform="translate(-46.236 -206.977)"/>
      <path id="Path_28" data-name="Path 28" class="cls-2" d="M434.171,392H403.8a3.787,3.787,0,0,0-3.8,3.776V448.64h37.968V395.776A3.787,3.787,0,0,0,434.171,392Z" transform="translate(-210.162 -206.977)"/>
      <path id="Path_29" data-name="Path 29" class="cls-2" d="M415.187,392H403.8a3.787,3.787,0,0,0-3.8,3.776V448.64h11.39V395.776A3.787,3.787,0,0,1,415.187,392Z" transform="translate(-210.162 -206.977)"/>
      <path id="Path_30" data-name="Path 30" class="cls-2" d="M226.171,296H195.8a3.787,3.787,0,0,0-3.8,3.776v98.176h37.968V299.776A3.787,3.787,0,0,0,226.171,296Z" transform="translate(-100.878 -156.288)"/>
      <path id="Path_31" data-name="Path 31" class="cls-2" d="M207.187,296H195.8a3.787,3.787,0,0,0-3.8,3.776v98.176h11.39V299.776A3.787,3.787,0,0,1,207.187,296Z" transform="translate(-100.878 -156.288)"/>
      <path id="Path_32" data-name="Path 32" class="cls-2" d="M330.171,344H299.8a3.787,3.787,0,0,0-3.8,3.776V423.3h37.968v-75.52A3.787,3.787,0,0,0,330.171,344Z" transform="translate(-155.52 -181.633)"/>
      <path id="Path_33" data-name="Path 33" class="cls-2" d="M311.187,344H299.8a3.787,3.787,0,0,0-3.8,3.776V423.3h11.39v-75.52A3.787,3.787,0,0,1,311.187,344Z" transform="translate(-155.52 -181.633)"/>
    </g>
    <g id="coffee-cup" transform="translate(262.46 141.236)">
      <g id="Group_2" data-name="Group 2" transform="translate(77.278 266.127)">
        <g id="Group_1" data-name="Group 1">
          <path id="Path_1" data-name="Path 1" class="cls-2" d="M463.33,202.654h-360.7c-21.307,0-38.646,19.7-38.646,43.9v29.268c0,104.428,50.781,199.14,132.5,247.169,6.313,3.688,14.092.907,17.365-6.293,3.246-7.171.8-16.009-5.54-19.727C135.2,454.008,89.752,369.276,89.752,275.822V246.555c0-8.078,5.772-14.634,12.882-14.634h360.7c7.111,0,12.882,6.557,12.882,14.634v29.268c0,93.453-45.448,178.184-118.591,221.12-6.338,3.717-8.786,12.556-5.54,19.727,2.293,5.034,6.8,7.931,11.465,7.931a11.5,11.5,0,0,0,5.9-1.639c81.75-48,132.53-142.682,132.53-247.14V246.553C501.976,222.351,484.636,202.654,463.33,202.654Z" transform="translate(-63.988 -202.654)"/>
        </g>
      </g>
      <g id="Group_4" data-name="Group 4" transform="translate(62.354 558.779)">
        <g id="Group_3" data-name="Group 3">
          <path id="Path_2" data-name="Path 2" class="cls-2" d="M469.957,425.01c-1.6-5.473-5.322-9.044-9.456-9.044H10.242c-4.134,0-7.859,3.571-9.455,9.044S.07,436.776,3,440.961L25.94,473.8c13.549,19.346,31.518,30,50.654,30H394.109c19.136,0,37.126-10.653,50.7-30l22.943-32.839C470.673,436.776,471.553,430.483,469.957,425.01Zm-39.643,28.1c-9.66,13.814-22.533,21.424-36.184,21.424H76.594c-13.651,0-26.524-7.61-36.184-21.424l-5.485-7.843H435.8Z" transform="translate(0 -415.966)"/>
        </g>
      </g>
      <g id="Group_6" data-name="Group 6" transform="translate(428.841 324.597)">
        <g id="Group_5" data-name="Group 5">
          <path id="Path_3" data-name="Path 3" class="cls-2" d="M519.66,255.9c-34.7-25.347-90.148,2.166-96.358,5.356-6.467,3.365-9.352,12.029-6.39,19.4s10.564,10.624,17.081,7.259c12.419-6.41,52.249-21.6,71.727-7.347,8.786,6.41,13.088,18.849,13.088,37.931,0,58.594-104.035,94.01-144.2,102.731l-9.12,2.048c-6.982,1.552-11.517,9.248-10.151,17.181,1.211,6.965,6.6,11.795,12.624,11.795a10.576,10.576,0,0,0,2.5-.292l9.043-2.019c6.75-1.464,165.07-36.731,165.07-131.443C544.573,289.066,536.175,268.021,519.66,255.9Z" transform="translate(-355.093 -245.272)"/>
        </g>
      </g>
      <g id="Group_8" data-name="Group 8" transform="translate(360.695 77.66)">
        <g id="Group_7" data-name="Group 7">
          <path id="Path_4" data-name="Path 4" class="cls-2" d="M334.542,118.689c20.946-23.109,20.946-59.3,0-82.4a14.025,14.025,0,0,0-18.112-1.774c-5.565,3.935-6.467,11.076-2.01,15.989,13.269,14.625,13.269,39.349-.025,54.019-20.972,23.109-20.972,59.3,0,82.4a13.542,13.542,0,0,0,10.073,4.276,13.924,13.924,0,0,0,8.038-2.5c5.565-3.935,6.467-11.1,2.01-15.989C321.222,158.083,321.222,133.36,334.542,118.689Z" transform="translate(-298.666 -32.001)"/>
        </g>
      </g>
      <g id="Group_10" data-name="Group 10" transform="translate(283.32 77.66)">
        <g id="Group_9" data-name="Group 9">
          <path id="Path_5" data-name="Path 5" class="cls-2" d="M270.453,118.694c20.971-23.11,20.971-59.3,0-82.409-4.431-4.913-12.547-5.71-18.112-1.774s-6.467,11.1-2.01,15.99c13.294,14.625,13.294,39.351-.025,54.022-20.946,23.11-20.946,59.3,0,82.409a13.542,13.542,0,0,0,10.073,4.277,13.981,13.981,0,0,0,8.038-2.5c5.565-3.935,6.467-11.077,2.01-15.99C257.159,158.09,257.159,133.365,270.453,118.694Z" transform="translate(-234.597 -32.009)"/>
        </g>
      </g>
      <g id="Group_12" data-name="Group 12" transform="translate(206.111 77.66)">
        <g id="Group_11" data-name="Group 11">
          <path id="Path_6" data-name="Path 6" class="cls-2" d="M206.542,118.723c20.946-23.112,20.946-59.3,0-82.416-4.431-4.914-12.521-5.732-18.112-1.774-5.54,3.912-6.441,11.078-2.01,15.969,13.269,14.627,13.269,39.354-.025,54.027-20.971,23.112-20.971,59.3,0,82.416a13.541,13.541,0,0,0,10.073,4.277,14.072,14.072,0,0,0,8.038-2.479c5.565-3.936,6.467-11.1,2.01-15.991C193.222,158.1,193.222,133.4,206.542,118.723Z" transform="translate(-170.666 -32.022)"/>
        </g>
      </g>
    </g>
  </g>
</svg>
